HIERARCHY
ROOT hip
{
  OFFSET 0 0 0
  CHANNELS 6 Xposition Yposition Zposition Zrotation Yrotation Xrotation
  JOINT abdomen
  {
    OFFSET 0 20.6881 -0.73152
    CHANNELS 3 Zrotation Xrotation Yrotation
    JOINT chest
    {
      OFFSET 0 11.7043 -0.48768
      CHANNELS 3 Zrotation Xrotation Yrotation
      JOINT neck
      {
        OFFSET 0 22.1894 -2.19456
        CHANNELS 3 Zrotation Xrotation Yrotation
        JOINT head
        {
          OFFSET -0.24384 7.07133 1.2192
          CHANNELS 3 Zrotation Xrotation Yrotation
          JOINT leftEye
          {
            OFFSET 4.14528 8.04674 8.04672
            CHANNELS 3 Zrotation Xrotation Yrotation
            End Site
            {
              OFFSET 1 0 0
            }
          }
          JOINT rightEye
          {
            OFFSET -3.6576 8.04674 8.04672
            CHANNELS 3 Zrotation Xrotation Yrotation
            End Site
            {
              OFFSET 1 0 0
            }
          }
        }
      }
      JOINT rCollar
      {
        OFFSET -2.68224 19.2634 -4.8768
        CHANNELS 3 Zrotation Xrotation Yrotation
        JOINT rShldr
        {
          OFFSET -8.77824 -1.95073 1.46304
          CHANNELS 3 Zrotation Xrotation Yrotation
          JOINT rForeArm
          {
            OFFSET -28.1742 -1.7115 0.48768
            CHANNELS 3 Zrotation Xrotation Yrotation
            JOINT rHand
            {
              OFFSET -22.5879 0.773209 7.07136
              CHANNELS 3 Zrotation Xrotation Yrotation
              JOINT rThumb1
              {
                OFFSET -1.2192 -0.487915 3.41376
                CHANNELS 3 Zrotation Xrotation Yrotation
                JOINT rThumb2
                {
                  OFFSET -3.37035 -0.52449 3.41376
                  CHANNELS 3 Zrotation Xrotation Yrotation
                  End Site
                  {
                    OFFSET -1.78271 -1.18214 1.43049
                  }
                }
              }
              JOINT rIndex1
              {
                OFFSET -7.75947 0.938293 5.60832
                CHANNELS 3 Zrotation Xrotation Yrotation
                JOINT rIndex2
                {
                  OFFSET -2.54057 -0.884171 1.56538
                  CHANNELS 3 Zrotation Xrotation Yrotation
                  End Site
                  {
                    OFFSET -1.62519 -0.234802 1.16502
                  }
                }
              }
              JOINT rMid1
              {
                OFFSET -8.24714 1.18213 3.41376
                CHANNELS 3 Zrotation Xrotation Yrotation
                JOINT rMid2
                {
                  OFFSET -3.10165 -0.590103 1.0647
                  CHANNELS 3 Zrotation Xrotation Yrotation
                  End Site
                  {
                    OFFSET -2.48547 -0.328903 0.83742
                  }
                }
              }
              JOINT rRing1
              {
                OFFSET -8.82822 0.546677 1.51678
                CHANNELS 3 Zrotation Xrotation Yrotation
                JOINT rRing2
                {
                  OFFSET -2.60934 -0.819778 -0.0198488
                  CHANNELS 3 Zrotation Xrotation Yrotation
                  End Site
                  {
                    OFFSET -2.33842 -0.294052 0.168128
                  }
                }
              }
              JOINT rPinky1
              {
                OFFSET -8.27202 -0.0477905 -0.4584
                CHANNELS 3 Zrotation Xrotation Yrotation
                JOINT rPinky2
                {
                  OFFSET -1.82734 -0.647385 -0.700984
                  CHANNELS 3 Zrotation Xrotation Yrotation
                  End Site
                  {
                    OFFSET -1.69225 -0.51767 -0.607171
                  }
                }
              }
            }
          }
        }
      }
      JOINT lCollar
      {
        OFFSET 2.68224 19.2634 -4.8768
        CHANNELS 3 Zrotation Xrotation Yrotation
        JOINT lShldr
        {
          OFFSET 8.77824 -1.95073 1.46304
          CHANNELS 3 Zrotation Xrotation Yrotation
          JOINT lForeArm
          {
            OFFSET 28.1742 -1.7115 0.48768
            CHANNELS 3 Zrotation Xrotation Yrotation
            JOINT lHand
            {
              OFFSET 22.5879 0.773209 7.07136
              CHANNELS 3 Zrotation Xrotation Yrotation
              JOINT lThumb1
              {
                OFFSET 1.2192 -0.487915 3.41376
                CHANNELS 3 Zrotation Xrotation Yrotation
                JOINT lThumb2
                {
                  OFFSET 3.37035 -0.52449 3.41376
                  CHANNELS 3 Zrotation Xrotation Yrotation
                  End Site
                  {
                    OFFSET 1.78271 -1.18214 1.43049
                  }
                }
              }
              JOINT lIndex1
              {
                OFFSET 7.75947 0.938293 5.60832
                CHANNELS 3 Zrotation Xrotation Yrotation
                JOINT lIndex2
                {
                  OFFSET 2.54057 -0.884171 1.56538
                  CHANNELS 3 Zrotation Xrotation Yrotation
                  End Site
                  {
                    OFFSET 1.62519 -0.234802 1.16502
                  }
                }
              }
              JOINT lMid1
              {
                OFFSET 8.24714 1.18213 3.41376
                CHANNELS 3 Zrotation Xrotation Yrotation
                JOINT lMid2
                {
                  OFFSET 3.10165 -0.590103 1.0647
                  CHANNELS 3 Zrotation Xrotation Yrotation
                  End Site
                  {
                    OFFSET 2.48547 -0.328903 0.83742
                  }
                }
              }
              JOINT lRing1
              {
                OFFSET 8.82822 0.546677 1.51678
                CHANNELS 3 Zrotation Xrotation Yrotation
                JOINT lRing2
                {
                  OFFSET 2.60934 -0.819778 -0.0198488
                  CHANNELS 3 Zrotation Xrotation Yrotation
                  End Site
                  {
                    OFFSET 2.33842 -0.294052 0.168128
                  }
                }
              }
              JOINT lPinky1
              {
                OFFSET 8.27202 -0.0477905 -0.4584
                CHANNELS 3 Zrotation Xrotation Yrotation
                JOINT lPinky2
                {
                  OFFSET 1.82734 -0.647385 -0.700984
                  CHANNELS 3 Zrotation Xrotation Yrotation
                  End Site
                  {
                    OFFSET 1.69225 -0.51767 -0.607171
                  }
                }
              }
            }
          }
        }
      }
    }
  }
  JOINT rButtock
  {
    OFFSET -8.77824 4.35084 1.2192
    CHANNELS 3 Zrotation Xrotation Yrotation
    JOINT rThigh
    {
      OFFSET 0 -1.70687 -2.19456
      CHANNELS 3 Zrotation Xrotation Yrotation
      JOINT rShin
      {
        OFFSET 0 -36.8199 0.73152
        CHANNELS 3 Zrotation Xrotation Yrotation
        JOINT rFoot
        {
          OFFSET 0.73152 -45.1104 -5.12064
          CHANNELS 3 Zrotation Xrotation Yrotation
          End Site
          {
            OFFSET -1.1221 -3.69964 12.103
          }
        }
      }
    }
  }
  JOINT lButtock
  {
    OFFSET 8.77824 4.35084 1.2192
    CHANNELS 3 Zrotation Xrotation Yrotation
    JOINT lThigh
    {
      OFFSET 0 -1.70687 -2.19456
      CHANNELS 3 Zrotation Xrotation Yrotation
      JOINT lShin
      {
        OFFSET 0 -36.8199 0.73152
        CHANNELS 3 Zrotation Xrotation Yrotation
        JOINT lFoot
        {
          OFFSET -0.73152 -45.1104 -5.12064
          CHANNELS 3 Zrotation Xrotation Yrotation
          End Site
          {
            OFFSET 1.1221 -3.69964 12.103
          }
        }
      }
    }
  }
}
MOTION
Frames:	4
Frame Time:	0.03333
-25.6736 68.8978 1.0635000000000001 -106.083996 -76.412196 106.01705 3.708977 3.156919 110.162579 -12.091758 1.806749 -105.542521 5.315564 17.497881 125.6194 -27.47511 0.317571 -154.760256 -5.807092 -0.285802 5.630382 99.509918 18.124846 -21.34377 -151.857979 2.408008 164.246656 -117.672226 -39.55108 -123.834332 -8.276786 29.403026 -82.390379 -137.351794 34.636357 137.54207 -171.780331 -9.013691 91.306147 -137.24622 -16.003194 83.059852 -9.516299 18.098312 -21.737592 -166.440331 -3.350912 71.334629 -96.465221 -80.104867 -109.04479 10.530044 -49.904568 -46.119497 -164.650022 76.325452 164.923595 169.423333 -44.856914 147.519326 20.429117 -0.197851 10.35599 -85.210343 -12.087726 -21.796909 -1.966021 -26.797266 5.937577 -36.241384 10.2739 -32.977652 -128.388142 1.798749 1.211076 141.689127 53.743404 -112.1592 0.741188 0.030761 -5.86315 58.421482 46.782619 -58.988053 167.615545 -72.798305 -135.659628 -34.456367 8.939897 18.096834 -7.133061 -25.205827 -5.024582 155.268198 -51.428535 -161.562834 43.222538 -77.654741 81.008275 -39.086954 -32.732366 -43.237724 66.578268 -70.056212 85.031385 164.08189 -19.046899 150.667152 68.400913 24.465883 29.136863 -109.249445 -10.419078 -0.0 13.857515 37.965086 -145.561731 -14.137049 -11.32654 106.738281 -0.675171 -8.029236 0.765332 12.532779 -12.177633 100.049952 44.667489 -2.648189 -109.856966 -116.330609 -35.626008 -19.826992
-24.356 70.1704 0.5058 -106.905275 -74.302473 108.522521 7.573436 3.912005 -0.203049 1.300103 -13.940019 4.575681 -5.588287 3.642092 -7.231467 24.843346 -6.856125 -23.622275 -2.866281 -0.093934 3.753277 59.747219 -18.346589 -31.404849 -153.360198 -1.150393 165.24089 -78.770171 -52.513933 -100.441188 -173.489133 -1.622199 -123.870396 -20.928946 -59.85897 -8.179934 -5.44279 4.002053 -4.055064 -106.477408 26.23043 80.339473 -6.065448 29.987358 -16.663879 4.776879 -20.99491 30.826892 -93.261739 -73.668025 -108.185465 55.028419 75.22475 -31.20431 -88.674021 -56.411377 -87.938694 -100.006901 -48.361095 -129.352632 -119.71027 45.713579 -165.304518 -65.355939 76.693985 174.127571 -1.644642 -14.06905 2.840061 -37.081359 -1.210581 -39.060678 -178.656026 -67.705512 -36.2281 178.350738 -16.884362 -139.703277 174.490853 -15.344838 -84.143588 109.037711 0.561786 -39.660003 18.994323 37.475461 -8.751788 -5.431437 -20.274885 -14.55273 2.479324 1.020688 -3.032086 77.445283 64.546412 -78.514526 114.448471 19.960766 -162.861716 -55.167966 7.267793 17.515033 75.960187 77.133898 -141.884847 65.198558 -35.612287 84.526957 -83.973385 50.419906 -39.804984 100.223511 -7.892028 -0.0 -24.759942 13.905557 68.854435 10.272481 22.834425 -35.463725 -139.980127 84.239957 -40.16276 -149.078203 61.570642 -34.260642 -11.823048 41.238611 -29.175054 114.554477 28.243339 -18.771067
-22.8199 71.2836 0.18710000000000002 -114.271504 -71.40475 117.788608 5.380206 -0.702074 82.587174 -9.235008 -6.53322 -79.932337 2.766497 22.10972 171.262997 -18.514036 26.7452 163.842099 0.799242 0.008849 1.268654 36.960976 -13.351388 -38.600589 -40.487211 -82.113477 -62.575576 -62.382993 63.062445 110.787095 -169.614901 -73.912067 -113.85746 -20.446897 -54.427373 -7.820705 -5.121313 0.850662 -6.998049 -125.398042 5.891277 109.328136 -141.896913 -33.435068 153.144214 -118.960941 83.106128 126.544395 -169.334811 -1.23091 171.154501 -13.998851 4.592357 -37.213452 4.571843 75.757848 -2.866521 -168.531649 -4.280703 154.235213 -115.83292 -5.305103 -151.01143 59.288043 -36.750742 53.038763 158.566392 -47.8398 -171.428548 -32.898553 9.007171 26.535142 -91.573752 -35.126261 97.319642 141.873 52.266146 -113.490291 174.030401 -19.3548 -83.915611 140.151381 -3.962564 -70.201795 74.202416 51.988078 -64.830763 -78.21202 -69.940177 -53.015445 -66.64659 -80.882959 -37.5471 12.117006 43.455079 -13.294318 -34.992869 -26.134608 -12.902446 35.622674 9.500261 -1.682765 120.033515 65.624768 163.654428 -79.951457 55.242021 29.815209 -104.199684 60.942303 -39.267447 108.080067 8.712211 -64.805295 -23.695692 -24.157632 71.245323 93.312707 -15.830208 -44.491082 174.099886 84.801998 -0.0 -135.549461 55.315372 -38.397628 7.558408 46.649408 82.684125 -52.569831 52.748421 -54.439364
-21.1155 72.24589999999999 0.0638 -116.824382 -68.980038 122.704345 4.240762 -5.184976 114.924933 -9.604881 -4.237749 -114.055603 -9.454635 11.43359 -79.80882 23.919117 18.63426 48.943332 1.776321 -0.062371 -4.021595 22.513671 -8.281411 -39.975444 -153.784924 11.039313 159.803307 -130.316755 -40.885297 -143.656552 -113.74313 -30.086385 -82.298117 -127.987777 -82.007591 -135.107286 -179.648246 -12.158177 94.573534 -160.475786 -1.200135 67.244661 15.557221 -25.734349 -24.070358 -69.388823 23.871588 60.368442 -81.436002 84.386962 68.558142 177.37631 9.614392 128.33759 -2.119821 2.192885 -17.613293 25.666389 -30.017352 15.864177 19.347672 42.123046 33.138748 50.121184 10.390489 -53.754716 -0.834571 0.18047 2.52234 -16.330375 5.878249 -48.01222 29.916507 12.69606 -121.999032 2.984803 -19.544222 5.811071 33.850248 29.974837 -23.668976 98.196429 27.2215 -75.198077 145.01164 -11.384078 -125.005883 -87.854817 -84.261858 -27.125186 163.148687 -28.029728 -147.162306 158.20383 -20.658305 -144.157573 123.960111 -17.659235 -156.92221 60.163135 51.467659 -106.920232 111.812094 9.149586 133.804858 -42.167931 -4.779371 0.671164 102.850063 55.505938 52.444177 -171.624672 45.110825 -180.0 14.070361 -32.694189 -93.362052 -121.488749 43.215096 96.935305 173.743105 84.644804 -0.0 -135.493625 51.765803 -180.0 -24.551503 -38.504294 44.444569 136.277705 -61.041531 -143.904587
